<svg width="600" height="120" viewBox="0 0 600 120" xmlns="http://www.w3.org/2000/svg">
    <!-- Outer thick line -->
    <path d="M 80 20 L 520 20 L 535 15 L 565 15 L 580 45 L 580 75 L 565 105 L 535 105 L 520 100 L 80 100 L 65 105 L 35 105 L 20 75 L 20 45 L 35 15 L 65 15 Z" stroke="#000000" stroke-width="3" fill="none"/>
    
    <!-- Inner thin line -->
    <path d="M 82 26 L 518 26 L 528 22 L 558 22 L 570 47 L 570 73 L 558 98 L 528 98 L 518 94 L 82 94 L 72 98 L 42 98 L 30 73 L 30 47 L 42 22 L 72 22 Z" stroke="#000000" stroke-width="1.5" fill="none"/>
    
    <!-- Left knot and star -->
    <path d="M 68 60 L 53 45 L 38 60 L 53 75 Z" fill="#000000"/>
    <circle cx="53" cy="60" r="15" fill="none" stroke="#000000" stroke-width="1"/>
    
    <!-- Right knot and star -->
    <path d="M 532 60 L 547 45 L 562 60 L 547 75 Z" fill="#000000"/>
    <circle cx="547" cy="60" r="15" fill="none" stroke="#000000" stroke-width="1"/>

    <!-- Center top/bottom small accents -->
    <path d="M 300 20 L 310 26 L 300 32 L 290 26 Z" fill="#000000"/>
    <path d="M 300 100 L 310 94 L 300 88 L 290 94 Z" fill="#000000"/>
    
    <!-- Internal border dots -->
    <path d="M 90 32 L 510 32" stroke="#000000" stroke-width="1.5" stroke-dasharray="2 4"/>
    <path d="M 90 88 L 510 88" stroke="#000000" stroke-width="1.5" stroke-dasharray="2 4"/>
</svg>
